<svg width="119" height="50" viewBox="0 0 119 50" fill="none" xmlns="http://www.w3.org/2000/svg">
<path d="M0 24.2942L10.2502 0.831992H14.044L24.2942 24.2942H19.9678L17.605 18.6699H6.58938L4.19324 24.2942H0ZM8.08697 15.0424H16.1074L12.0805 5.72411L8.08697 15.0424Z" fill="black"/>
<path d="M27.4903 24.2942V6.7225H31.5172V9.45144C32.9149 7.3881 34.7453 6.35643 37.0083 6.35643C38.9608 6.35643 40.4916 6.96655 41.6009 8.18681C42.7103 9.40707 43.2649 11.0489 43.2649 13.1122V24.2942H39.2381V14.3103C39.2381 12.9347 38.9053 11.8809 38.2397 11.1487C37.5963 10.3944 36.6755 10.0172 35.4775 10.0172C34.3016 10.0172 33.3476 10.4055 32.6154 11.182C31.8833 11.9585 31.5172 13.0235 31.5172 14.3768V24.2942H27.4903Z" fill="black"/>
<path d="M55.9151 24.6936C53.3193 24.6936 51.1561 23.8061 49.4256 22.0312C47.695 20.2563 46.8298 18.0931 46.8298 15.5416C46.8298 13.0124 47.695 10.8492 49.4256 9.05208C51.1783 7.25498 53.3526 6.35643 55.9484 6.35643C58.7883 6.35643 61.1289 7.36591 62.9704 9.38488L60.4744 12.0805C59.0767 10.6162 57.5569 9.88408 55.9151 9.88408C54.473 9.88408 53.2638 10.4387 52.2876 11.5481C51.3336 12.6352 50.8566 13.9664 50.8566 15.5416C50.8566 17.1391 51.3447 18.4813 52.3209 19.5685C53.3193 20.6556 54.5839 21.1992 56.1148 21.1992C57.7344 21.1992 59.2542 20.467 60.6741 19.0027L63.1035 21.3989C62.1495 22.4638 61.1068 23.2847 59.9753 23.8616C58.8659 24.4162 57.5125 24.6936 55.9151 24.6936Z" fill="black"/>
<path d="M66.4744 24.2942V0H70.5013V9.45144C71.899 7.3881 73.7294 6.35643 75.9924 6.35643C77.9448 6.35643 79.4757 6.96655 80.585 8.18681C81.6943 9.40707 82.249 11.0489 82.249 13.1122V24.2942H78.2222V14.3103C78.2222 12.9347 77.8894 11.8809 77.2238 11.1487C76.5804 10.3944 75.6596 10.0172 74.4615 10.0172C73.2857 10.0172 72.3316 10.4055 71.5995 11.182C70.8673 11.9585 70.5013 13.0235 70.5013 14.3768V24.2942H66.4744Z" fill="black"/>
<path d="M95.1321 24.6936C92.4698 24.6936 90.2511 23.8061 88.4762 22.0312C86.7013 20.2563 85.8138 18.0931 85.8138 15.5416C85.8138 12.9902 86.7124 10.827 88.5095 9.05208C90.3066 7.25498 92.5363 6.35643 95.1987 6.35643C97.8611 6.35643 100.08 7.24388 101.855 9.0188C103.652 10.7937 104.55 12.968 104.55 15.5416C104.55 18.0709 103.652 20.2341 101.855 22.0312C100.058 23.8061 97.8167 24.6936 95.1321 24.6936ZM95.1987 21.1992C96.7961 21.1992 98.083 20.6556 99.0592 19.5685C100.035 18.4813 100.523 17.1391 100.523 15.5416C100.523 13.9664 100.013 12.6352 98.9926 11.5481C97.972 10.4387 96.6852 9.88408 95.1321 9.88408C93.5569 9.88408 92.2812 10.4276 91.305 11.5148C90.3288 12.6019 89.8407 13.9442 89.8407 15.5416C89.8407 17.0947 90.351 18.4259 91.3715 19.5352C92.3921 20.6445 93.6678 21.1992 95.1987 21.1992Z" fill="black"/>
<path d="M108.318 24.2942V6.7225H112.345V10.6828C113.588 7.68761 115.662 6.25659 118.569 6.3897V10.6495H118.336C116.516 10.6495 115.063 11.2485 113.976 12.4466C112.889 13.6225 112.345 15.3419 112.345 17.605V24.2942H108.318Z" fill="black"/>
<path d="M10.1503 49.9334C6.44517 49.9334 3.20595 48.691 0.432636 46.2061L2.89534 43.2775C5.22492 45.2965 7.67652 46.306 10.2502 46.306C11.5148 46.306 12.5132 46.0397 13.2453 45.5072C13.9997 44.9526 14.3768 44.2204 14.3768 43.3108C14.3768 42.4455 14.0219 41.7577 13.3119 41.2474C12.6019 40.715 11.2042 40.2047 9.11864 39.7166C6.41189 39.0732 4.4373 38.2634 3.19485 37.2871C1.9746 36.2888 1.36447 34.769 1.36447 32.7278C1.36447 30.731 2.10772 29.1114 3.59421 27.869C5.0807 26.6044 6.98874 25.972 9.31832 25.972C12.5132 25.972 15.3309 26.9482 17.7714 28.9007L15.5749 31.9957C13.4228 30.3982 11.3151 29.5995 9.25176 29.5995C8.07588 29.5995 7.14405 29.8658 6.45627 30.3982C5.79067 30.9307 5.45787 31.6074 5.45787 32.4283C5.45787 33.338 5.82395 34.0479 6.55611 34.5582C7.31045 35.0463 8.78585 35.5566 10.9823 36.0891C13.5559 36.7103 15.4418 37.5423 16.6399 38.5851C17.8601 39.6278 18.4702 41.0921 18.4702 42.978C18.4702 45.1301 17.7048 46.8273 16.1739 48.0698C14.6431 49.3122 12.6352 49.9334 10.1503 49.9334Z" fill="black"/>
<path d="M28.3759 49.9002C25.0036 49.9002 23.3174 48.1807 23.3174 44.7418V35.49H21.0876V32.029H23.3174V27.2034H27.3442V32.029H32.0699V35.49H27.3442V44.1095C27.3442 45.5738 28.0653 46.306 29.5074 46.306C30.3727 46.306 31.2047 46.1063 32.0034 45.7069V49.0016C30.9384 49.6006 29.7293 49.9002 28.3759 49.9002Z" fill="black"/>
<path d="M41.8594 49.9667C39.907 49.9667 38.3761 49.3566 37.2668 48.1363C36.1575 46.9161 35.6028 45.2743 35.6028 43.2109V32.029H39.6296V42.0129C39.6296 43.3884 39.9513 44.4534 40.5948 45.2077C41.2604 45.9399 42.1922 46.306 43.3903 46.306C44.5661 46.306 45.5202 45.9177 46.2523 45.1412C46.9845 44.3646 47.3505 43.2997 47.3505 41.9463V32.029H51.3774V49.6006H47.3505V46.8717C45.9528 48.9351 44.1224 49.9667 41.8594 49.9667Z" fill="black"/>
<path d="M63.362 49.9667C61.1655 49.9667 59.2575 49.1458 57.6379 47.504C56.0183 45.84 55.2084 43.5992 55.2084 40.7815C55.2084 37.986 56.0072 35.7674 57.6046 34.1256C59.2242 32.4838 61.1433 31.6629 63.362 31.6629C65.7581 31.6629 67.7549 32.6945 69.3523 34.7579V25.3065H73.3792V49.6006H69.3523V46.672C67.7993 48.8685 65.8025 49.9667 63.362 49.9667ZM60.7329 44.9082C61.7313 45.951 62.9293 46.4724 64.3271 46.4724C65.7248 46.4724 66.9229 45.9399 67.9213 44.8749C68.9197 43.81 69.4189 42.4455 69.4189 40.7815C69.4189 39.1397 68.9197 37.7974 67.9213 36.7547C66.9229 35.6897 65.7248 35.1572 64.3271 35.1572C62.9072 35.1572 61.7091 35.6786 60.7329 36.7214C59.7567 37.742 59.2686 39.1175 59.2686 40.8481C59.2686 42.5121 59.7567 43.8654 60.7329 44.9082Z" fill="black"/>
<path d="M78.1356 29.3333V25.5061H82.4619V29.3333H78.1356ZM78.302 49.6006V32.029H82.3288V49.6006H78.302Z" fill="black"/>
<path d="M95.6118 50C92.9495 50 90.7308 49.1125 88.9559 47.3376C87.181 45.5627 86.2935 43.3995 86.2935 40.8481C86.2935 38.2966 87.1921 36.1335 88.9892 34.3585C90.7863 32.5614 93.016 31.6629 95.6784 31.6629C98.3408 31.6629 100.559 32.5503 102.334 34.3253C104.131 36.1002 105.03 38.2744 105.03 40.8481C105.03 43.3773 104.131 45.5405 102.334 47.3376C100.537 49.1125 98.2964 50 95.6118 50ZM95.6784 46.5056C97.2758 46.5056 98.5626 45.9621 99.5389 44.8749C100.515 43.7878 101.003 42.4455 101.003 40.8481C101.003 39.2728 100.493 37.9416 99.4723 36.8545C98.4517 35.7452 97.1649 35.1905 95.6118 35.1905C94.0366 35.1905 92.7609 35.7341 91.7847 36.8212C90.8085 37.9084 90.3204 39.2507 90.3204 40.8481C90.3204 42.4011 90.8307 43.7323 91.8512 44.8416C92.8718 45.951 94.1475 46.5056 95.6784 46.5056Z" fill="black"/>
</svg>
